<svg width="17" height="17" viewBox="0 0 17 17" fill="none" xmlns="http://www.w3.org/2000/svg">
<path d="M8.17773 12.3406C8.0444 12.3406 7.9194 12.3196 7.80273 12.2776C7.68607 12.2363 7.57773 12.1656 7.47773 12.0656L3.87773 8.46562C3.6944 8.28229 3.60273 8.04896 3.60273 7.76562C3.60273 7.48229 3.6944 7.24896 3.87773 7.06563C4.06107 6.88229 4.2984 6.78629 4.58973 6.77763C4.88173 6.76963 5.1194 6.85729 5.30273 7.04062L7.17773 8.91562V1.76562C7.17773 1.48229 7.27373 1.24463 7.46573 1.05263C7.65707 0.861292 7.8944 0.765625 8.17773 0.765625C8.46107 0.765625 8.69873 0.861292 8.89073 1.05263C9.08207 1.24463 9.17773 1.48229 9.17773 1.76562V8.91562L11.0527 7.04062C11.2361 6.85729 11.4737 6.76963 11.7657 6.77763C12.0571 6.78629 12.2944 6.88229 12.4777 7.06563C12.6611 7.24896 12.7527 7.48229 12.7527 7.76562C12.7527 8.04896 12.6611 8.28229 12.4777 8.46562L8.87773 12.0656C8.77773 12.1656 8.6694 12.2363 8.55273 12.2776C8.43607 12.3196 8.31107 12.3406 8.17773 12.3406ZM2.17773 16.7656C1.62773 16.7656 1.15707 16.57 0.765734 16.1786C0.373734 15.7866 0.177734 15.3156 0.177734 14.7656V12.7656C0.177734 12.4823 0.273401 12.2446 0.464735 12.0526C0.656735 11.8613 0.894401 11.7656 1.17773 11.7656C1.46107 11.7656 1.69873 11.8613 1.89073 12.0526C2.08207 12.2446 2.17773 12.4823 2.17773 12.7656V14.7656H14.1777V12.7656C14.1777 12.4823 14.2737 12.2446 14.4657 12.0526C14.6571 11.8613 14.8944 11.7656 15.1777 11.7656C15.4611 11.7656 15.6984 11.8613 15.8897 12.0526C16.0817 12.2446 16.1777 12.4823 16.1777 12.7656V14.7656C16.1777 15.3156 15.9821 15.7866 15.5907 16.1786C15.1987 16.57 14.7277 16.7656 14.1777 16.7656H2.17773Z" fill="white"/>
</svg>
