<svg width="548" height="427" viewBox="0 0 548 427" fill="none" xmlns="http://www.w3.org/2000/svg">
<path d="M302.298 164.975C403.017 148.572 443.218 196.319 455.069 236.585C457.123 243.564 466.743 245.088 468.293 237.98C483.84 166.682 417.584 63.1751 306.082 55.6105C206.203 48.8344 183.154 98.6464 184.114 124.399C186.942 144.47 214.537 180.684 302.298 164.975Z" fill="#2775E7"/>
<path d="M302.298 164.975C403.017 148.572 443.218 196.319 455.069 236.585C457.123 243.564 466.743 245.088 468.293 237.98C483.84 166.682 417.584 63.1751 306.082 55.6105C206.203 48.8344 183.154 98.6464 184.114 124.399C186.942 144.47 214.537 180.684 302.298 164.975Z" fill="#A3C9F2"/>
<path d="M435.653 363.468C454.105 343.07 460.119 311.758 461.167 288.244C461.476 281.297 452.836 279.159 448.789 284.814C428.882 312.626 412.457 318.453 393.934 326.94C376.275 335.031 381.692 360.283 386.607 371.898C392.41 380.746 410.344 391.447 435.653 363.468Z" fill="#2775E7"/>
<path d="M435.653 363.468C454.105 343.07 460.119 311.758 461.167 288.244C461.476 281.297 452.836 279.159 448.789 284.814C428.882 312.626 412.457 318.453 393.934 326.94C376.275 335.031 381.692 360.283 386.607 371.898C392.41 380.746 410.344 391.447 435.653 363.468Z" fill="#A3C9F2"/>
<path d="M237.27 268.402C140.414 283.292 101.061 237.73 89.0767 199.15C86.9276 192.232 77.3833 190.787 75.9396 197.886C62.0651 266.11 126.881 365.167 234.438 373.238C331.134 380.494 353.059 332.907 351.934 308.206C349.046 288.94 322.069 254.007 237.27 268.402Z" fill="#3371FF"/>
<path d="M106.725 77.0647C88.4267 97.1404 83.0804 128.501 82.5397 151.26C82.3969 157.275 89.9193 159.068 93.3677 154.138C112.977 126.102 129.124 120.577 147.37 112.407C164.396 104.783 160.668 81.066 154.118 69.3541C148.436 60.8261 131.002 50.429 106.725 77.0647Z" fill="#3371FF"/>
<path d="M177.499 231.878C174.79 231.878 172.459 231.374 170.569 230.366C168.616 229.421 167.041 228.035 165.844 226.208C164.584 224.444 163.639 222.239 163.072 219.719C162.442 217.199 162.19 214.427 162.19 211.403C162.19 208.379 162.442 205.607 163.072 203.087C163.639 200.567 164.584 198.425 165.844 196.598C167.041 194.834 168.616 193.385 170.569 192.377C172.459 191.432 174.79 190.928 177.499 190.928C180.145 190.928 182.476 191.432 184.429 192.377C186.319 193.385 187.957 194.834 189.217 196.598C190.414 198.425 191.296 200.567 191.926 203.087C192.493 205.607 192.808 208.379 192.808 211.403C192.808 214.427 192.493 217.199 191.926 219.719C191.296 222.239 190.414 224.444 189.217 226.208C187.957 228.035 186.319 229.421 184.429 230.366C182.476 231.374 180.145 231.878 177.499 231.878ZM209.944 245.045C209.944 245.927 209.503 246.368 208.621 246.368H203.203V212.033H196.21C195.706 212.033 195.328 211.97 195.202 211.718C194.95 211.529 194.887 211.214 194.887 210.71V206.363H203.203V188.219H209.944V245.045ZM177.499 226.019C180.397 226.019 182.602 224.759 183.988 222.176C185.374 219.656 186.067 216.065 186.067 211.403C186.067 206.741 185.374 203.15 183.988 200.567C182.602 198.047 180.397 196.787 177.499 196.787C174.538 196.787 172.396 198.047 171.01 200.567C169.624 203.15 168.931 206.741 168.931 211.403C168.931 216.065 169.624 219.656 171.01 222.176C172.396 224.759 174.538 226.019 177.499 226.019Z" fill="#646464"/>
<path d="M279.86 228.476H246.785V223.121H263.291V218.774H241.178C240.674 218.774 240.296 218.711 240.17 218.459C239.918 218.27 239.855 217.955 239.855 217.451V213.167H293.531V217.451C293.531 217.955 293.405 218.27 293.279 218.459C293.027 218.711 292.712 218.774 292.208 218.774H270.095V223.121H286.601V233.453C286.601 234.839 286.286 235.847 285.782 236.414C285.152 236.981 284.081 237.296 282.569 237.296H253.526V239.375C253.526 240.068 253.715 240.509 254.093 240.761C254.471 240.95 255.101 241.076 256.109 241.202C257.558 241.328 258.881 241.391 260.078 241.454C261.212 241.454 262.535 241.517 264.047 241.517C265.685 241.517 267.575 241.454 269.717 241.391L276.143 241.013C278.285 240.824 280.49 240.635 282.632 240.383C284.711 240.131 286.601 239.816 288.302 239.501L288.932 243.218C288.995 243.722 288.932 244.163 288.806 244.478C288.554 244.73 288.176 244.919 287.546 245.045C285.845 245.297 283.955 245.612 281.939 245.864L275.639 246.431C273.497 246.557 271.355 246.62 269.339 246.746C267.26 246.809 265.433 246.872 263.795 246.872H259.448C257.999 246.809 256.55 246.746 255.101 246.62C253.589 246.494 252.392 246.305 251.384 246.116C250.313 245.864 249.431 245.486 248.801 245.108C248.045 244.604 247.541 244.037 247.289 243.344C246.911 242.588 246.785 241.58 246.785 240.446V231.941H278.852C279.482 231.941 279.86 231.626 279.86 230.933V228.476ZM286.853 198.992C286.853 206.174 280.112 209.702 266.693 209.702C260.015 209.702 255.038 208.82 251.636 207.056C248.171 205.292 246.47 202.646 246.47 198.992C246.47 195.401 248.171 192.692 251.636 190.928C255.038 189.164 260.015 188.282 266.693 188.282C280.112 188.282 286.853 191.873 286.853 198.992ZM266.693 193.7C257.747 193.7 253.274 195.464 253.274 198.992C253.274 202.52 257.747 204.284 266.693 204.284C275.576 204.284 280.049 202.52 280.049 198.992C280.049 195.464 275.576 193.7 266.693 193.7Z" fill="#646464"/>
<path d="M345.114 197.165H325.08V191.558H351.918V204.662C351.918 206.048 351.603 207.056 351.099 207.623C350.469 208.253 349.398 208.505 347.886 208.505H331.884V212.789C331.884 213.797 332.073 214.49 332.514 214.805C332.892 215.183 333.522 215.372 334.341 215.372C336.735 215.372 339.255 215.246 341.964 214.931C344.61 214.679 347.319 214.364 349.965 213.86C352.611 213.482 355.131 212.978 357.651 212.411C360.045 211.907 362.25 211.403 364.203 210.899V188.219H370.944V221.105C370.944 221.987 370.503 222.428 369.621 222.428H364.203V216.569C362.187 217.073 359.919 217.577 357.399 218.081C354.879 218.648 352.233 219.089 349.587 219.467C346.878 219.908 344.169 220.223 341.397 220.475C338.625 220.79 335.979 220.979 333.459 220.979C330.561 221.105 328.419 220.538 327.096 219.341C325.71 218.207 325.08 216.317 325.08 213.671V202.898H344.106C344.736 202.898 345.114 202.583 345.114 201.89V197.165ZM352.8 246.368C349.776 246.368 347.193 246.179 344.988 245.864C342.72 245.486 340.83 244.856 339.318 244.037C337.743 243.155 336.609 241.958 335.853 240.572C335.034 239.06 334.656 237.233 334.656 235.091V225.641H370.944V235.091C370.944 237.233 370.566 239.06 369.81 240.572C368.991 241.958 367.857 243.155 366.345 244.037C364.77 244.856 362.88 245.486 360.612 245.864C358.344 246.179 355.698 246.368 352.8 246.368ZM352.8 240.887C354.816 240.887 356.517 240.761 358.029 240.635C359.415 240.446 360.612 240.131 361.557 239.753C362.439 239.312 363.069 238.745 363.573 238.052C363.951 237.296 364.203 236.351 364.203 235.217V231.122H341.397V235.217C341.397 236.351 341.586 237.296 342.09 238.052C342.468 238.745 343.161 239.312 344.106 239.753C344.988 240.131 346.122 240.446 347.634 240.635C349.02 240.761 350.784 240.887 352.8 240.887Z" fill="#646464"/>
</svg>
