<svg width="79" height="62" viewBox="0 0 79 62" fill="none" xmlns="http://www.w3.org/2000/svg">
<path d="M43.7254 23.7526C58.114 21.4092 63.8569 28.2303 65.5499 33.9826C65.8433 34.9796 67.2177 35.1973 67.4391 34.1819C69.66 23.9965 60.1949 9.20972 44.266 8.12906C29.9977 7.16105 26.7049 14.277 26.8421 17.956C27.246 20.8233 31.1882 25.9967 43.7254 23.7526Z" fill="#2775E7"/>
<path d="M43.7254 23.7526C58.114 21.4092 63.8569 28.2303 65.5499 33.9826C65.8433 34.9796 67.2177 35.1973 67.4391 34.1819C69.66 23.9965 60.1949 9.20972 44.266 8.12906C29.9977 7.16105 26.7049 14.277 26.8421 17.956C27.246 20.8233 31.1882 25.9967 43.7254 23.7526Z" fill="#A3C9F2"/>
<path d="M62.7762 52.1087C65.4122 49.1947 66.2713 44.7215 66.421 41.3624C66.4652 40.37 65.2309 40.0646 64.6527 40.8724C61.8088 44.8456 59.4624 45.678 56.8163 46.8904C54.2936 48.0463 55.0674 51.6538 55.7696 53.313C56.5987 54.577 59.1606 56.1058 62.7762 52.1087Z" fill="#2775E7"/>
<path d="M62.7762 52.1087C65.4122 49.1947 66.2713 44.7215 66.421 41.3624C66.4652 40.37 65.2309 40.0646 64.6527 40.8724C61.8088 44.8456 59.4624 45.678 56.8163 46.8904C54.2936 48.0463 55.0674 51.6538 55.7696 53.313C56.5987 54.577 59.1606 56.1058 62.7762 52.1087Z" fill="#A3C9F2"/>
<path d="M34.4357 38.5275C20.5992 40.6546 14.9774 34.1457 13.2653 28.6344C12.9583 27.646 11.5948 27.4396 11.3885 28.4537C9.40648 38.2001 18.6659 52.3511 34.0312 53.504C47.8449 54.5406 50.977 47.7424 50.8164 44.2138C50.4037 41.4615 46.5499 36.471 34.4357 38.5275Z" fill="#3371FF"/>
<path d="M15.7864 11.1935C13.1724 14.0615 12.4087 18.5416 12.3314 21.7929C12.311 22.6521 13.3857 22.9083 13.8783 22.204C16.6795 18.1988 18.9864 17.4096 21.5929 16.2424C24.0252 15.1532 23.4925 11.7651 22.557 10.092C21.7452 8.87374 19.2546 7.38843 15.7864 11.1935Z" fill="#3371FF"/>
<path d="M26.3256 33.1673C25.9386 33.1673 25.6056 33.0953 25.3356 32.9513C25.0566 32.8163 24.8316 32.6183 24.6606 32.3573C24.4806 32.1053 24.3456 31.7903 24.2646 31.4303C24.1746 31.0703 24.1386 30.6743 24.1386 30.2423C24.1386 29.8103 24.1746 29.4143 24.2646 29.0543C24.3456 28.6943 24.4806 28.3883 24.6606 28.1273C24.8316 27.8753 25.0566 27.6683 25.3356 27.5243C25.6056 27.3893 25.9386 27.3173 26.3256 27.3173C26.7036 27.3173 27.0366 27.3893 27.3156 27.5243C27.5856 27.6683 27.8196 27.8753 27.9996 28.1273C28.1706 28.3883 28.2966 28.6943 28.3866 29.0543C28.4676 29.4143 28.5126 29.8103 28.5126 30.2423C28.5126 30.6743 28.4676 31.0703 28.3866 31.4303C28.2966 31.7903 28.1706 32.1053 27.9996 32.3573C27.8196 32.6183 27.5856 32.8163 27.3156 32.9513C27.0366 33.0953 26.7036 33.1673 26.3256 33.1673ZM30.9606 35.0483C30.9606 35.1743 30.8976 35.2373 30.7716 35.2373H29.9976V30.3323H28.9986C28.9266 30.3323 28.8726 30.3233 28.8546 30.2873C28.8186 30.2603 28.8096 30.2153 28.8096 30.1433V29.5223H29.9976V26.9303H30.9606V35.0483ZM26.3256 32.3303C26.7396 32.3303 27.0546 32.1503 27.2526 31.7813C27.4506 31.4213 27.5496 30.9083 27.5496 30.2423C27.5496 29.5763 27.4506 29.0633 27.2526 28.6943C27.0546 28.3343 26.7396 28.1543 26.3256 28.1543C25.9026 28.1543 25.5966 28.3343 25.3986 28.6943C25.2006 29.0633 25.1016 29.5763 25.1016 30.2423C25.1016 30.9083 25.2006 31.4213 25.3986 31.7813C25.5966 32.1503 25.9026 32.3303 26.3256 32.3303Z" fill="#646464"/>
<path d="M40.9486 32.6813H36.2236V31.9163H38.5816V31.2953H35.4226C35.3506 31.2953 35.2966 31.2863 35.2786 31.2503C35.2426 31.2233 35.2336 31.1783 35.2336 31.1063V30.4943H42.9016V31.1063C42.9016 31.1783 42.8836 31.2233 42.8656 31.2503C42.8296 31.2863 42.7846 31.2953 42.7126 31.2953H39.5536V31.9163H41.9116V33.3923C41.9116 33.5903 41.8666 33.7343 41.7946 33.8153C41.7046 33.8963 41.5516 33.9413 41.3356 33.9413H37.1866V34.2383C37.1866 34.3373 37.2136 34.4003 37.2676 34.4363C37.3216 34.4633 37.4116 34.4813 37.5556 34.4993C37.7626 34.5173 37.9516 34.5263 38.1226 34.5353C38.2846 34.5353 38.4736 34.5443 38.6896 34.5443C38.9236 34.5443 39.1936 34.5353 39.4996 34.5263L40.4176 34.4723C40.7236 34.4453 41.0386 34.4183 41.3446 34.3823C41.6416 34.3463 41.9116 34.3013 42.1546 34.2563L42.2446 34.7873C42.2536 34.8593 42.2446 34.9223 42.2266 34.9673C42.1906 35.0033 42.1366 35.0303 42.0466 35.0483C41.8036 35.0843 41.5336 35.1293 41.2456 35.1653L40.3456 35.2463C40.0396 35.2643 39.7336 35.2733 39.4456 35.2913C39.1486 35.3003 38.8876 35.3093 38.6536 35.3093H38.0326C37.8256 35.3003 37.6186 35.2913 37.4116 35.2733C37.1956 35.2553 37.0246 35.2283 36.8806 35.2013C36.7276 35.1653 36.6016 35.1113 36.5116 35.0573C36.4036 34.9853 36.3316 34.9043 36.2956 34.8053C36.2416 34.6973 36.2236 34.5533 36.2236 34.3913V33.1763H40.8046C40.8946 33.1763 40.9486 33.1313 40.9486 33.0323V32.6813ZM41.9476 28.4693C41.9476 29.4953 40.9846 29.9993 39.0676 29.9993C38.1136 29.9993 37.4026 29.8733 36.9166 29.6213C36.4216 29.3693 36.1786 28.9913 36.1786 28.4693C36.1786 27.9563 36.4216 27.5693 36.9166 27.3173C37.4026 27.0653 38.1136 26.9393 39.0676 26.9393C40.9846 26.9393 41.9476 27.4523 41.9476 28.4693ZM39.0676 27.7133C37.7896 27.7133 37.1506 27.9653 37.1506 28.4693C37.1506 28.9733 37.7896 29.2253 39.0676 29.2253C40.3366 29.2253 40.9756 28.9733 40.9756 28.4693C40.9756 27.9653 40.3366 27.7133 39.0676 27.7133Z" fill="#646464"/>
<path d="M50.2706 28.2083H47.4086V27.4073H51.2426V29.2793C51.2426 29.4773 51.1976 29.6213 51.1256 29.7023C51.0356 29.7923 50.8826 29.8283 50.6666 29.8283H48.3806V30.4403C48.3806 30.5843 48.4076 30.6833 48.4706 30.7283C48.5246 30.7823 48.6146 30.8093 48.7316 30.8093C49.0736 30.8093 49.4336 30.7913 49.8206 30.7463C50.1986 30.7103 50.5856 30.6653 50.9636 30.5933C51.3416 30.5393 51.7016 30.4673 52.0616 30.3863C52.4036 30.3143 52.7186 30.2423 52.9976 30.1703V26.9303H53.9606V31.6283C53.9606 31.7543 53.8976 31.8173 53.7716 31.8173H52.9976V30.9803C52.7096 31.0523 52.3856 31.1243 52.0256 31.1963C51.6656 31.2773 51.2876 31.3403 50.9096 31.3943C50.5226 31.4573 50.1356 31.5023 49.7396 31.5383C49.3436 31.5833 48.9656 31.6103 48.6056 31.6103C48.1916 31.6283 47.8856 31.5473 47.6966 31.3763C47.4986 31.2143 47.4086 30.9443 47.4086 30.5663V29.0273H50.1266C50.2166 29.0273 50.2706 28.9823 50.2706 28.8833V28.2083ZM51.3686 35.2373C50.9366 35.2373 50.5676 35.2103 50.2526 35.1653C49.9286 35.1113 49.6586 35.0213 49.4426 34.9043C49.2176 34.7783 49.0556 34.6073 48.9476 34.4093C48.8306 34.1933 48.7766 33.9323 48.7766 33.6263V32.2763H53.9606V33.6263C53.9606 33.9323 53.9066 34.1933 53.7986 34.4093C53.6816 34.6073 53.5196 34.7783 53.3036 34.9043C53.0786 35.0213 52.8086 35.1113 52.4846 35.1653C52.1606 35.2103 51.7826 35.2373 51.3686 35.2373ZM51.3686 34.4543C51.6566 34.4543 51.8996 34.4363 52.1156 34.4183C52.3136 34.3913 52.4846 34.3463 52.6196 34.2923C52.7456 34.2293 52.8356 34.1483 52.9076 34.0493C52.9616 33.9413 52.9976 33.8063 52.9976 33.6443V33.0593H49.7396V33.6443C49.7396 33.8063 49.7666 33.9413 49.8386 34.0493C49.8926 34.1483 49.9916 34.2293 50.1266 34.2923C50.2526 34.3463 50.4146 34.3913 50.6306 34.4183C50.8286 34.4363 51.0806 34.4543 51.3686 34.4543Z" fill="#646464"/>
</svg>
