<svg xmlns="http://www.w3.org/2000/svg" width="70" height="78" viewBox="0 0 70 78" fill="none">
<g filter="url(#filter0_d_1043_2251)">
<rect x="17.0469" y="2.14136" width="47.0349" height="59.4612" rx="6" fill="url(#paint0_linear_1043_2251)"/>
<g filter="url(#filter1_f_1043_2251)">
<g filter="url(#filter2_d_1043_2251)">
<rect x="6.29297" y="8.53882" width="47.0349" height="59.4612" rx="6" fill="url(#paint1_linear_1043_2251)" fill-opacity="0.79" shape-rendering="crispEdges"/>
</g>
</g>
<path d="M49.041 40.1866C49.3561 40.2025 49.6567 40.3656 49.8965 40.6232C50.4245 41.1907 50.2562 42.0141 49.8574 42.5197L49.8516 42.5275L42.292 51.381L42.293 51.382C42.0737 51.6596 41.7723 51.8145 41.4551 51.8146C41.1377 51.8146 40.8356 51.6598 40.6162 51.382V51.381L37.0469 46.9991L37.0449 46.9962C36.6181 46.4554 36.6181 45.6123 37.0449 45.0714C37.2635 44.7945 37.5626 44.6388 37.8789 44.6388C38.1938 44.6389 38.4917 44.7928 38.71 45.0675L41.4629 48.4249L48.1963 40.587C48.4196 40.3088 48.7212 40.1706 49.041 40.1866Z" fill="#F9FAFB" stroke="#F9FAFB" stroke-width="0.5"/>
<path d="M15.7207 21.6874H36.9746" stroke="#F9FAFB" stroke-width="3" stroke-linecap="round"/>
<path d="M15.7207 28.7262H31.7832" stroke="#F9FAFB" stroke-width="3" stroke-linecap="round"/>
</g>
<circle cx="43.4758" cy="46" r="10.6907" stroke="#F9FAFB" stroke-width="3" stroke-linejoin="round"/>
<defs>
<filter id="filter0_d_1043_2251" x="0.492969" y="-1.85864" width="69.3891" height="79.6586" filterUnits="userSpaceOnUse" color-interpolation-filters="sRGB">
<feFlood flood-opacity="0" result="BackgroundImageFix"/>
<feColorMatrix in="SourceAlpha" type="matrix" values="0 0 0 0 0 0 0 0 0 0 0 0 0 0 0 0 0 0 127 0" result="hardAlpha"/>
<feOffset dy="4"/>
<feGaussianBlur stdDeviation="2.9"/>
<feComposite in2="hardAlpha" operator="out"/>
<feColorMatrix type="matrix" values="0 0 0 0 0 0 0 0 0 0 0 0 0 0 0 0 0 0 0.09 0"/>
<feBlend mode="normal" in2="BackgroundImageFix" result="effect1_dropShadow_1043_2251"/>
<feBlend mode="normal" in="SourceGraphic" in2="effect1_dropShadow_1043_2251" result="shape"/>
</filter>
<filter id="filter1_f_1043_2251" x="2.29297" y="4.53882" width="55.0352" height="67.4612" filterUnits="userSpaceOnUse" color-interpolation-filters="sRGB">
<feFlood flood-opacity="0" result="BackgroundImageFix"/>
<feBlend mode="normal" in="SourceGraphic" in2="BackgroundImageFix" result="shape"/>
<feGaussianBlur stdDeviation="0.15" result="effect1_foregroundBlur_1043_2251"/>
</filter>
<filter id="filter2_d_1043_2251" x="3.59297" y="4.83882" width="56.4352" height="68.8612" filterUnits="userSpaceOnUse" color-interpolation-filters="sRGB">
<feFlood flood-opacity="0" result="BackgroundImageFix"/>
<feColorMatrix in="SourceAlpha" type="matrix" values="0 0 0 0 0 0 0 0 0 0 0 0 0 0 0 0 0 0 127 0" result="hardAlpha"/>
<feOffset dx="2" dy="1"/>
<feGaussianBlur stdDeviation="2.35"/>
<feComposite in2="hardAlpha" operator="out"/>
<feColorMatrix type="matrix" values="0 0 0 0 0 0 0 0 0 0 0 0 0 0 0 0 0 0 0.1 0"/>
<feBlend mode="normal" in2="BackgroundImageFix" result="effect1_dropShadow_1043_2251"/>
<feBlend mode="normal" in="SourceGraphic" in2="effect1_dropShadow_1043_2251" result="shape"/>
</filter>
<linearGradient id="paint0_linear_1043_2251" x1="17.0469" y1="2.14136" x2="58.8871" y2="61.6025" gradientUnits="userSpaceOnUse">
<stop offset="0.0769231" stop-color="#36B7FF"/>
<stop offset="0.490385" stop-color="#317BE7"/>
<stop offset="1" stop-color="#1A498E"/>
</linearGradient>
<linearGradient id="paint1_linear_1043_2251" x1="8.23772" y1="10.6854" x2="128.24" y2="182.904" gradientUnits="userSpaceOnUse">
<stop stop-color="#DBECFA"/>
<stop offset="1" stop-color="#3A8ACD"/>
</linearGradient>
</defs>
</svg>