<svg width="21" height="21" viewBox="0 0 21 21" fill="none" xmlns="http://www.w3.org/2000/svg">
<path d="M14.9544 13.5608H14.0093L13.6744 13.2378C15.1099 11.563 15.8516 9.27811 15.4449 6.84964C14.8826 3.52395 12.1072 0.868181 8.7576 0.461442C3.69729 -0.16063 -0.561509 4.09817 0.060563 9.15848C0.467302 12.5081 3.12307 15.2835 6.44876 15.8458C8.87723 16.2525 11.1621 15.5108 12.837 14.0752L13.16 14.4102V15.3553L18.2442 20.4395C18.7347 20.93 19.5362 20.93 20.0267 20.4395C20.5172 19.949 20.5172 19.1475 20.0267 18.657L14.9544 13.5608ZM7.77664 13.5608C4.79788 13.5608 2.39333 11.1563 2.39333 8.17752C2.39333 5.19876 4.79788 2.79421 7.77664 2.79421C10.7554 2.79421 13.16 5.19876 13.16 8.17752C13.16 11.1563 10.7554 13.5608 7.77664 13.5608Z" fill="#757575"/>
</svg>
