<svg width="16" height="20" viewBox="0 0 16 20" fill="none" xmlns="http://www.w3.org/2000/svg">
<path d="M7.80769 10.2157C8.3336 10.2157 8.78396 10.0283 9.15878 9.65343C9.53297 9.27925 9.72007 8.8292 9.72007 8.3033C9.72007 7.7774 9.53297 7.32703 9.15878 6.95221C8.78396 6.57802 8.3336 6.39093 7.80769 6.39093C7.28179 6.39093 6.83175 6.57802 6.45756 6.95221C6.08273 7.32703 5.89532 7.7774 5.89532 8.3033C5.89532 8.8292 6.08273 9.27925 6.45756 9.65343C6.83175 10.0283 7.28179 10.2157 7.80769 10.2157ZM7.80769 17.2436C9.75194 15.4588 11.1942 13.8371 12.1344 12.3786C13.0747 10.9207 13.5448 9.62602 13.5448 8.49454C13.5448 6.75746 12.9909 5.33498 11.883 4.22708C10.7757 3.11981 9.41727 2.56618 7.80769 2.56618C6.19811 2.56618 4.83937 3.11981 3.73147 4.22708C2.62421 5.33498 2.07058 6.75746 2.07058 8.49454C2.07058 9.62602 2.5407 10.9207 3.48095 12.3786C4.4212 13.8371 5.86345 15.4588 7.80769 17.2436ZM7.80769 19.419C7.6802 19.419 7.55271 19.3951 7.42522 19.3472C7.29773 19.2994 7.18617 19.2357 7.09055 19.156C4.76383 17.1002 3.02676 15.192 1.87934 13.4313C0.731915 11.67 0.158203 10.0244 0.158203 8.49454C0.158203 6.10407 0.927296 4.19967 2.46548 2.78132C4.00303 1.36298 5.78377 0.653809 7.80769 0.653809C9.83162 0.653809 11.6124 1.36298 13.1499 2.78132C14.6881 4.19967 15.4572 6.10407 15.4572 8.49454C15.4572 10.0244 14.8835 11.67 13.736 13.4313C12.5886 15.192 10.8516 17.1002 8.52483 19.156C8.42921 19.2357 8.31766 19.2994 8.19017 19.3472C8.06268 19.3951 7.93518 19.419 7.80769 19.419Z" fill="#757575"/>
</svg>
