<svg width="33" height="21" viewBox="0 0 33 21" fill="none" xmlns="http://www.w3.org/2000/svg">
<path d="M22.3434 9.09126C24.7635 9.09126 26.7026 7.13765 26.7026 4.71751C26.7026 2.29736 24.7635 0.34375 22.3434 0.34375C19.9232 0.34375 17.9696 2.29736 17.9696 4.71751C17.9696 7.13765 19.9232 9.09126 22.3434 9.09126ZM10.68 9.09126C13.1002 9.09126 15.0392 7.13765 15.0392 4.71751C15.0392 2.29736 13.1002 0.34375 10.68 0.34375C8.2599 0.34375 6.30629 2.29736 6.30629 4.71751C6.30629 7.13765 8.2599 9.09126 10.68 9.09126ZM10.68 12.0071C7.28309 12.0071 0.474609 13.7129 0.474609 17.1098V19.2967C0.474609 20.0986 1.13067 20.7546 1.93253 20.7546H19.4276C20.2294 20.7546 20.8855 20.0986 20.8855 19.2967V17.1098C20.8855 13.7129 14.077 12.0071 10.68 12.0071ZM22.3434 12.0071C21.9206 12.0071 21.4395 12.0363 20.9292 12.08C20.9584 12.0946 20.9729 12.1237 20.9875 12.1383C22.6496 13.3484 23.8013 14.9667 23.8013 17.1098V19.2967C23.8013 19.807 23.6993 20.3027 23.5389 20.7546H31.0909C31.8928 20.7546 32.5488 20.0986 32.5488 19.2967V17.1098C32.5488 13.7129 25.7403 12.0071 22.3434 12.0071Z" fill="#D9D9D9"/>
</svg>
